<mxfile host="app.diagrams.net" modified="2023-11-20T13:51:59.144Z" agent="Mozilla/5.0 (X11; Linux x86_64; rv:109.0) Gecko/20100101 Firefox/119.0" etag="a01Dw-WSx-GaGwgKvLc1" version="22.1.3" type="github">
  <diagram name="Page-1" id="yC7KV2Ko1jgtMiXsxVH6">
    <mxGraphModel dx="2260" dy="829" grid="0" gridSize="10" guides="1" tooltips="1" connect="1" arrows="1" fold="1" page="0" pageScale="1" pageWidth="850" pageHeight="1100" math="0" shadow="0">
      <root>
        <mxCell id="0" />
        <mxCell id="1" parent="0" />
        <mxCell id="NwfZpaaQpDAw_J0AIX61-1" value="Transazione" style="rhombus;whiteSpace=wrap;html=1;fontSize=16;" parent="1" vertex="1">
          <mxGeometry x="347" y="282" width="136" height="80" as="geometry" />
        </mxCell>
        <mxCell id="NwfZpaaQpDAw_J0AIX61-16" style="edgeStyle=none;curved=1;rounded=0;orthogonalLoop=1;jettySize=auto;html=1;fontSize=12;shape=flexArrow;" parent="1" source="NwfZpaaQpDAw_J0AIX61-15" target="NwfZpaaQpDAw_J0AIX61-10" edge="1">
          <mxGeometry relative="1" as="geometry" />
        </mxCell>
        <mxCell id="NwfZpaaQpDAw_J0AIX61-38" style="edgeStyle=none;curved=1;rounded=0;orthogonalLoop=1;jettySize=auto;html=1;fontSize=12;shape=flexArrow;" parent="1" source="NwfZpaaQpDAw_J0AIX61-36" target="NwfZpaaQpDAw_J0AIX61-10" edge="1">
          <mxGeometry relative="1" as="geometry" />
        </mxCell>
        <mxCell id="NwfZpaaQpDAw_J0AIX61-59" value="" style="edgeStyle=none;curved=1;rounded=0;orthogonalLoop=1;jettySize=auto;html=1;fontSize=12;shape=flexArrow;" parent="1" source="NwfZpaaQpDAw_J0AIX61-58" target="NwfZpaaQpDAw_J0AIX61-10" edge="1">
          <mxGeometry relative="1" as="geometry" />
        </mxCell>
        <mxCell id="NwfZpaaQpDAw_J0AIX61-82" style="edgeStyle=none;curved=1;rounded=0;orthogonalLoop=1;jettySize=auto;html=1;fontSize=12;shape=flexArrow;" parent="1" source="NwfZpaaQpDAw_J0AIX61-81" target="NwfZpaaQpDAw_J0AIX61-10" edge="1">
          <mxGeometry relative="1" as="geometry" />
        </mxCell>
        <mxCell id="NwfZpaaQpDAw_J0AIX61-87" style="edgeStyle=none;curved=1;rounded=0;orthogonalLoop=1;jettySize=auto;html=1;fontSize=12;shape=flexArrow;" parent="1" source="NwfZpaaQpDAw_J0AIX61-86" target="NwfZpaaQpDAw_J0AIX61-10" edge="1">
          <mxGeometry relative="1" as="geometry" />
        </mxCell>
        <mxCell id="NwfZpaaQpDAw_J0AIX61-10" value="&lt;div&gt;Prodotto&lt;/div&gt;" style="whiteSpace=wrap;html=1;fontSize=16;" parent="1" vertex="1">
          <mxGeometry x="355" y="400" width="120" height="60" as="geometry" />
        </mxCell>
        <mxCell id="NwfZpaaQpDAw_J0AIX61-15" value="Cartoleria" style="rounded=1;whiteSpace=wrap;html=1;fontSize=16;" parent="1" vertex="1">
          <mxGeometry x="355" y="532.5" width="120" height="60" as="geometry" />
        </mxCell>
        <mxCell id="NwfZpaaQpDAw_J0AIX61-20" value="&lt;div&gt;Snacks&lt;/div&gt;" style="whiteSpace=wrap;html=1;fontSize=16;rounded=1;" parent="1" vertex="1">
          <mxGeometry x="659" y="513" width="120" height="60" as="geometry" />
        </mxCell>
        <mxCell id="NwfZpaaQpDAw_J0AIX61-23" value="&lt;div&gt;Bevande&lt;/div&gt;" style="rounded=1;whiteSpace=wrap;html=1;fontSize=16;" parent="1" vertex="1">
          <mxGeometry x="659" y="614" width="120" height="60" as="geometry" />
        </mxCell>
        <mxCell id="NwfZpaaQpDAw_J0AIX61-26" value="&lt;div&gt;Gomme e&lt;br&gt;&lt;/div&gt;&lt;div&gt;Caramelle&lt;/div&gt;" style="rounded=1;whiteSpace=wrap;html=1;fontSize=16;" parent="1" vertex="1">
          <mxGeometry x="483" y="614" width="120" height="60" as="geometry" />
        </mxCell>
        <mxCell id="NwfZpaaQpDAw_J0AIX61-28" value="&lt;div&gt;Cliente&lt;/div&gt;" style="rounded=0;whiteSpace=wrap;html=1;fontSize=16;" parent="1" vertex="1">
          <mxGeometry x="355" y="184" width="120" height="60" as="geometry" />
        </mxCell>
        <mxCell id="NwfZpaaQpDAw_J0AIX61-36" value="Giochi" style="rounded=0;whiteSpace=wrap;html=1;fontSize=16;" parent="1" vertex="1">
          <mxGeometry x="166" y="400" width="120" height="60" as="geometry" />
        </mxCell>
        <mxCell id="NwfZpaaQpDAw_J0AIX61-70" value="&lt;div&gt;&lt;br&gt;&lt;/div&gt;" style="edgeStyle=none;curved=1;rounded=0;orthogonalLoop=1;jettySize=auto;html=1;fontSize=12;shape=flexArrow;" parent="1" source="NwfZpaaQpDAw_J0AIX61-62" target="NwfZpaaQpDAw_J0AIX61-58" edge="1">
          <mxGeometry relative="1" as="geometry" />
        </mxCell>
        <mxCell id="NwfZpaaQpDAw_J0AIX61-71" style="edgeStyle=none;curved=1;rounded=0;orthogonalLoop=1;jettySize=auto;html=1;fontSize=12;shape=flexArrow;" parent="1" source="NwfZpaaQpDAw_J0AIX61-61" target="NwfZpaaQpDAw_J0AIX61-58" edge="1">
          <mxGeometry relative="1" as="geometry" />
        </mxCell>
        <mxCell id="NwfZpaaQpDAw_J0AIX61-72" style="edgeStyle=none;curved=1;rounded=0;orthogonalLoop=1;jettySize=auto;html=1;fontSize=12;shape=flexArrow;" parent="1" source="NwfZpaaQpDAw_J0AIX61-64" target="NwfZpaaQpDAw_J0AIX61-58" edge="1">
          <mxGeometry relative="1" as="geometry" />
        </mxCell>
        <mxCell id="NwfZpaaQpDAw_J0AIX61-73" style="edgeStyle=none;curved=1;rounded=0;orthogonalLoop=1;jettySize=auto;html=1;fontSize=12;shape=flexArrow;" parent="1" source="NwfZpaaQpDAw_J0AIX61-65" target="NwfZpaaQpDAw_J0AIX61-58" edge="1">
          <mxGeometry relative="1" as="geometry" />
        </mxCell>
        <mxCell id="NwfZpaaQpDAw_J0AIX61-58" value="Servizi ausiliari" style="whiteSpace=wrap;html=1;fontSize=16;" parent="1" vertex="1">
          <mxGeometry x="551" y="400" width="120" height="60" as="geometry" />
        </mxCell>
        <mxCell id="NwfZpaaQpDAw_J0AIX61-61" value="Bollette" style="rounded=1;whiteSpace=wrap;html=1;fontSize=16;" parent="1" vertex="1">
          <mxGeometry x="807" y="362" width="120" height="60" as="geometry" />
        </mxCell>
        <mxCell id="NwfZpaaQpDAw_J0AIX61-62" value="Ricariche Telefoniche" style="rounded=1;whiteSpace=wrap;html=1;fontSize=16;" parent="1" vertex="1">
          <mxGeometry x="807" y="285" width="120" height="60" as="geometry" />
        </mxCell>
        <mxCell id="NwfZpaaQpDAw_J0AIX61-64" value="Multe" style="rounded=1;whiteSpace=wrap;html=1;fontSize=16;" parent="1" vertex="1">
          <mxGeometry x="807" y="439" width="120" height="60" as="geometry" />
        </mxCell>
        <mxCell id="NwfZpaaQpDAw_J0AIX61-65" value="Operazioni su carte di credito" style="rounded=0;whiteSpace=wrap;html=1;fontSize=16;" parent="1" vertex="1">
          <mxGeometry x="807" y="516" width="120" height="60" as="geometry" />
        </mxCell>
        <mxCell id="NwfZpaaQpDAw_J0AIX61-83" style="edgeStyle=none;curved=1;rounded=0;orthogonalLoop=1;jettySize=auto;html=1;fontSize=12;shape=flexArrow;" parent="1" source="NwfZpaaQpDAw_J0AIX61-20" target="NwfZpaaQpDAw_J0AIX61-81" edge="1">
          <mxGeometry relative="1" as="geometry" />
        </mxCell>
        <mxCell id="NwfZpaaQpDAw_J0AIX61-84" style="edgeStyle=none;curved=1;rounded=0;orthogonalLoop=1;jettySize=auto;html=1;fontSize=12;shape=flexArrow;" parent="1" source="NwfZpaaQpDAw_J0AIX61-23" target="NwfZpaaQpDAw_J0AIX61-81" edge="1">
          <mxGeometry relative="1" as="geometry" />
        </mxCell>
        <mxCell id="NwfZpaaQpDAw_J0AIX61-85" style="edgeStyle=none;curved=1;rounded=0;orthogonalLoop=1;jettySize=auto;html=1;fontSize=12;shape=flexArrow;" parent="1" source="NwfZpaaQpDAw_J0AIX61-26" target="NwfZpaaQpDAw_J0AIX61-81" edge="1">
          <mxGeometry relative="1" as="geometry" />
        </mxCell>
        <mxCell id="NwfZpaaQpDAw_J0AIX61-81" value="Alimentari" style="rounded=0;whiteSpace=wrap;html=1;fontSize=16;" parent="1" vertex="1">
          <mxGeometry x="483" y="513" width="120" height="60" as="geometry" />
        </mxCell>
        <mxCell id="NwfZpaaQpDAw_J0AIX61-90" style="edgeStyle=none;curved=1;rounded=0;orthogonalLoop=1;jettySize=auto;html=1;fontSize=12;shape=flexArrow;" parent="1" source="NwfZpaaQpDAw_J0AIX61-88" target="NwfZpaaQpDAw_J0AIX61-86" edge="1">
          <mxGeometry relative="1" as="geometry" />
        </mxCell>
        <mxCell id="NwfZpaaQpDAw_J0AIX61-91" style="edgeStyle=none;curved=1;rounded=0;orthogonalLoop=1;jettySize=auto;html=1;fontSize=12;shape=flexArrow;" parent="1" source="NwfZpaaQpDAw_J0AIX61-89" target="NwfZpaaQpDAw_J0AIX61-86" edge="1">
          <mxGeometry relative="1" as="geometry" />
        </mxCell>
        <mxCell id="NwfZpaaQpDAw_J0AIX61-86" value="Tabacchi" style="rounded=0;whiteSpace=wrap;html=1;fontSize=16;" parent="1" vertex="1">
          <mxGeometry x="227" y="516" width="120" height="60" as="geometry" />
        </mxCell>
        <mxCell id="NwfZpaaQpDAw_J0AIX61-88" value="Trinciati" style="rounded=1;whiteSpace=wrap;html=1;fontSize=16;" parent="1" vertex="1">
          <mxGeometry x="59" y="516" width="120" height="60" as="geometry" />
        </mxCell>
        <mxCell id="NwfZpaaQpDAw_J0AIX61-89" value="Sigarette" style="rounded=1;whiteSpace=wrap;html=1;fontSize=16;" parent="1" vertex="1">
          <mxGeometry x="227" y="614" width="120" height="60" as="geometry" />
        </mxCell>
        <mxCell id="BWnH7RUJTYlGTLS44q7B-9" value="(1, N)" style="endArrow=none;html=1;rounded=0;" edge="1" parent="1" source="NwfZpaaQpDAw_J0AIX61-1" target="NwfZpaaQpDAw_J0AIX61-28">
          <mxGeometry width="50" height="50" relative="1" as="geometry">
            <mxPoint x="594" y="463" as="sourcePoint" />
            <mxPoint x="644" y="413" as="targetPoint" />
          </mxGeometry>
        </mxCell>
        <mxCell id="BWnH7RUJTYlGTLS44q7B-10" value="(1, 1)" style="endArrow=none;html=1;rounded=0;" edge="1" parent="1" source="NwfZpaaQpDAw_J0AIX61-1" target="NwfZpaaQpDAw_J0AIX61-10">
          <mxGeometry width="50" height="50" relative="1" as="geometry">
            <mxPoint x="425" y="292" as="sourcePoint" />
            <mxPoint x="425" y="254" as="targetPoint" />
          </mxGeometry>
        </mxCell>
        <mxCell id="BWnH7RUJTYlGTLS44q7B-11" value="Tipo" style="ellipse;whiteSpace=wrap;html=1;aspect=fixed;" vertex="1" parent="1">
          <mxGeometry x="535" y="297.5" width="49" height="49" as="geometry" />
        </mxCell>
        <mxCell id="BWnH7RUJTYlGTLS44q7B-13" value="" style="endArrow=none;html=1;rounded=0;" edge="1" parent="1" source="BWnH7RUJTYlGTLS44q7B-11" target="NwfZpaaQpDAw_J0AIX61-1">
          <mxGeometry width="50" height="50" relative="1" as="geometry">
            <mxPoint x="594" y="463" as="sourcePoint" />
            <mxPoint x="644" y="413" as="targetPoint" />
          </mxGeometry>
        </mxCell>
        <mxCell id="BWnH7RUJTYlGTLS44q7B-15" value="Tipo" style="ellipse;whiteSpace=wrap;html=1;aspect=fixed;" vertex="1" parent="1">
          <mxGeometry x="974" y="521.5" width="49" height="49" as="geometry" />
        </mxCell>
        <mxCell id="BWnH7RUJTYlGTLS44q7B-16" value="" style="endArrow=none;html=1;rounded=0;" edge="1" parent="1" source="BWnH7RUJTYlGTLS44q7B-15" target="NwfZpaaQpDAw_J0AIX61-65">
          <mxGeometry width="50" height="50" relative="1" as="geometry">
            <mxPoint x="1086" y="684" as="sourcePoint" />
            <mxPoint x="975" y="543" as="targetPoint" />
          </mxGeometry>
        </mxCell>
        <mxCell id="BWnH7RUJTYlGTLS44q7B-17" value="Tipo" style="ellipse;whiteSpace=wrap;html=1;aspect=fixed;" vertex="1" parent="1">
          <mxGeometry x="85" y="405.5" width="49" height="49" as="geometry" />
        </mxCell>
        <mxCell id="BWnH7RUJTYlGTLS44q7B-18" value="" style="endArrow=none;html=1;rounded=0;" edge="1" parent="1" source="BWnH7RUJTYlGTLS44q7B-17" target="NwfZpaaQpDAw_J0AIX61-36">
          <mxGeometry width="50" height="50" relative="1" as="geometry">
            <mxPoint x="139" y="376" as="sourcePoint" />
            <mxPoint x="189" y="326" as="targetPoint" />
          </mxGeometry>
        </mxCell>
        <mxCell id="BWnH7RUJTYlGTLS44q7B-19" value="Magazzino" style="rounded=0;whiteSpace=wrap;html=1;" vertex="1" parent="1">
          <mxGeometry x="-7" y="199" width="120" height="60" as="geometry" />
        </mxCell>
        <mxCell id="BWnH7RUJTYlGTLS44q7B-22" value="Ingrosso" style="rhombus;whiteSpace=wrap;html=1;" vertex="1" parent="1">
          <mxGeometry x="174" y="288.5" width="80" height="67" as="geometry" />
        </mxCell>
        <mxCell id="BWnH7RUJTYlGTLS44q7B-23" value="(1, N)" style="endArrow=none;html=1;rounded=0;" edge="1" parent="1" source="BWnH7RUJTYlGTLS44q7B-19" target="BWnH7RUJTYlGTLS44q7B-22">
          <mxGeometry width="50" height="50" relative="1" as="geometry">
            <mxPoint x="594" y="463" as="sourcePoint" />
            <mxPoint x="644" y="413" as="targetPoint" />
          </mxGeometry>
        </mxCell>
        <mxCell id="BWnH7RUJTYlGTLS44q7B-24" value="(1, 1)" style="endArrow=none;html=1;rounded=0;" edge="1" parent="1" source="NwfZpaaQpDAw_J0AIX61-10" target="BWnH7RUJTYlGTLS44q7B-22">
          <mxGeometry width="50" height="50" relative="1" as="geometry">
            <mxPoint x="115" y="269" as="sourcePoint" />
            <mxPoint x="200" y="318" as="targetPoint" />
          </mxGeometry>
        </mxCell>
        <mxCell id="BWnH7RUJTYlGTLS44q7B-25" value="Indirizzo" style="ellipse;whiteSpace=wrap;html=1;aspect=fixed;" vertex="1" parent="1">
          <mxGeometry x="-114" y="199" width="59" height="59" as="geometry" />
        </mxCell>
        <mxCell id="BWnH7RUJTYlGTLS44q7B-26" value="" style="endArrow=none;html=1;rounded=0;" edge="1" parent="1" source="BWnH7RUJTYlGTLS44q7B-25" target="BWnH7RUJTYlGTLS44q7B-19">
          <mxGeometry width="50" height="50" relative="1" as="geometry">
            <mxPoint x="-78" y="364.5" as="sourcePoint" />
            <mxPoint x="-189" y="223.5" as="targetPoint" />
          </mxGeometry>
        </mxCell>
      </root>
    </mxGraphModel>
  </diagram>
</mxfile>
